<svg id="Camada_1" data-name="Camada 1" xmlns="http://www.w3.org/2000/svg" viewBox="0 0 434.83 297.75"><defs><style>.cls-1{fill:#d93845;}.cls-1,.cls-2,.cls-3,.cls-4,.cls-5{fill-rule:evenodd;}.cls-2{fill:#7d8287;}.cls-3{fill:#db3845;}.cls-4{fill:#737373;}.cls-5{fill:#bf3b45;}</style></defs><title>startlog_logo</title><path class="cls-1" d="M826.29,345.29l-.19-.1.27-3.94v-.05a9.78,9.78,0,0,0-2-6.61c-.6-5-4-6.57-5.1-6.95-3.22-2.1-11.34-2.69-13.87-2.82l-13.86-8.67h0a6.68,6.68,0,0,0-3.13-1.23h-.14L783,311.74a13.15,13.15,0,0,0-5.78-2.27l-2.56-.34h-.38l-.27-.07a4.3,4.3,0,0,0-2.15-1.42,5.66,5.66,0,0,0-1.54-.26l-11.61-.81h0c-.92,0-1.86-.06-2.8-.06v0a104.27,104.27,0,0,0-14.75.87,88,88,0,0,0-12,2.78H729a4.13,4.13,0,0,0-3.09,3.94l-.24,2.42,1.66.24.26-2.63s-.21-1.65,1.95-2.38A86.27,86.27,0,0,1,741.28,309s2.76-.41,7-.67l.62.25s.7.56,1.26,2.82l1,3.28v0a2.4,2.4,0,0,0,.61.85,3.14,3.14,0,0,0,2.14.76l5.55-.3a10.46,10.46,0,0,1,3.31.78.89.89,0,0,0,.56.22h.5l.21-.45c.25-.55.25-.58-3.47-4.69a4.52,4.52,0,0,0-3.23-1.78l-3.27,0H754a2,2,0,0,0-1.8,1l-.33-1.05a5.77,5.77,0,0,0-.64-1.83c1.43-.05,3-.07,4.57-.05.9,0,1.82,0,2.76.06l11.64.81s2.08,0,2.71,1.47l1.12.27h.37l2.62.34a11.3,11.3,0,0,1,5.06,2l4.49,2.68.06.06a4.44,4.44,0,0,0-.62-.1s-5.06-.52-7.94-.44c-4.34-.15-11.61,1.26-11.61,1.26s-1.62.37-.32,1.59l9.38,8.64s.26.83,2.09.75l26.32-.82,1.78-.27c2.55.17,10.34.81,12.81,2.65,0,0,3.35.74,4.1,5.15h0l0,.23c0,.25.07.5.09.76l0,0v.1c-.18.8-1.22.8-1.22.8a.46.46,0,0,1-.51-.34c-.29-.51-2.45-4-2.45-4a1.21,1.21,0,0,0-1.22-.74l-3.87.28a17.26,17.26,0,0,0-2.36-.13,7.89,7.89,0,0,0-2.16.52c-.45.1-5.14.56-7,.72a4.24,4.24,0,0,0-1.65-.37l-7.13-.89h0s-.29,0-.67,0c-1.43,0-3.32.21-4.22,1.33a2.36,2.36,0,0,0-.3.5c-5,2.21-8.51.16-13.74,1-5.4.85-5.29,2.39-6,3.08-3.21,3.51-26.24.05-26.24.05a5.56,5.56,0,0,1-3.14-.68c-1.59-.65-1.8-3.56-5.93-3.45l-6.66-.15s-1.75.46-1.8,2l.11,1.59c0,.68.27,2.67.21,2.79l-.6.6.3.73.86,4.37-5-.53c1.7.39,3.39.78,5.1,1l.11.55,0,.09,0,.1a6,6,0,0,0,.27.72,42.62,42.62,0,0,0,6.18.26,1.56,1.56,0,0,0,.92-.77c1.43-2.24,3.62-2.45,5-.41.15.22.34.67.27.83a1,1,0,0,1-.63.56c-1.22.16-2.44.26-3.65.34a58.69,58.69,0,0,1-7.86-.37c-2.1-.15-1-.13-3.11-.28,1.1.21,2.2.42,3.31.6a3.17,3.17,0,0,0,1.88,1.45l1.33.46c0,.67.07,1.28.13,1.86a4.76,4.76,0,0,0,2.19-.06c.19-1.18.15-1.76.37-2.94,0-.05.29,0,.42,0-.13,1.22-.24,1.95-.37,3.2-.08.27,1.4.37,2.07.36a9.65,9.65,0,0,1-.2-1,1.33,1.33,0,0,1,.92-1.49c.66-.09.54.64.58,1.15a8.84,8.84,0,0,1-.05,1.23c.75,0,1.51-.07,2.27-.08.49,0,.5-.5.48-.91,0-.83-.14-1.66-.21-2.49.71-.38.83-.31,1,.68,0,.12,0,.25,0,.37.23,3.29-.15,3.13-2,3.14a51.14,51.14,0,0,1-7.44-.84h0l-4-.66c1.34.39,2.69.78,4.05,1.06.82,5.31,3.53,6.51,4.36,6.74a7.26,7.26,0,0,0,2.35.36,13.17,13.17,0,0,0,2.23-.16h.08c2.9-.64,3.9-4.06,4.24-6l9-1.25,7.83.73a5.46,5.46,0,0,0,.43.7c2.69.4,6.69.95,9.62,1.23l.21-.18,1,.13,0,.15a6.94,6.94,0,0,0,2.52-.06c.24-1.17.18-1.75.46-2.93,0-.05.39,0,.58,0-.16,1.23-.29,2-.45,3.2-.11.28,1.94.4,2.87.4a6.11,6.11,0,0,1-.3-1,1.33,1.33,0,0,1,1.24-1.47c.91-.08.76.66.83,1.16a6.66,6.66,0,0,1,0,1.24c1,0,2.09-.05,3.14-.05.67,0,.68-.49.64-.9-.06-.83-.22-1.65-.34-2.49,1-.37,1.15-.3,1.37.7,0,.12.06.24.07.36.38,3.3-.16,3.13-2.72,3.11a93.65,93.65,0,0,1-9.79-.91,12,12,0,0,0,2.36,5.62,8.73,8.73,0,0,0,4.07,2.52l.2.07a11.88,11.88,0,0,0,3.84.63,15.7,15.7,0,0,0,2.37-.16,6.82,6.82,0,0,0,5.5-4.37,11.89,11.89,0,0,0,.53-1.55c.88,0,2.14-.18,2.55-.23,2.83,0,10.43-1.33,13.15-1.81a9.49,9.49,0,0,0,7,2.61,16.18,16.18,0,0,0,3.8-.41,6.93,6.93,0,0,0,4.82-4.12,9.43,9.43,0,0,0,.62-1.8,5.79,5.79,0,0,0,4.32-5.62l0-1Zm-91.1,11.88c-1.5,0-2.92-1.73-3.19-3.89.43-.32.58.07.75.49.68,1.7,1.75,2.57,2.89,2.06a4.52,4.52,0,0,0,1.76-1.65c.39-.6.71-.78,1.2-.57-.38,2-1.93,3.59-3.41,3.56ZM782.42,350a1.24,1.24,0,0,1-.87.56c-1.67.13-3.35.21-5,.27-8.74.27-35.24-3.17-35.24-3.21,2.1-.1,26.38,2.95,32.6,2.62a2,2,0,0,0,1.25-.75,4.52,4.52,0,0,1,6.9-.31c.21.22.48.67.39.82Zm-.74,12h-.28l1.52,0c-.34,0-.77.05-1.24.05Zm-3.23-1.73a4.93,4.93,0,0,1-4.48-3.95c.58-.31.8.08,1,.51,1,1.71,2.47,2.6,4,2.11a5.75,5.75,0,0,0,2.4-1.62,1.36,1.36,0,0,1,1.64-.55,4.89,4.89,0,0,1-4.64,3.5Zm7.81-.48c-.17.27-.69.3-1,.45,0-.33-.2-.74-.06-1a10.09,10.09,0,0,0,.37-9.5,2.15,2.15,0,0,1-.09-.44c2.39,2.78,2.74,7.6.82,10.46Zm17.24-21.91-10,.77a12.76,12.76,0,0,1-1.61.1,2.53,2.53,0,0,1-2.35-1c-.73-1-.79-3.36-.79-3.36-.47-2,2.38-2.21,3.66-2.2l.59,0,7.19.89a2.42,2.42,0,0,1,2.18,1l1.84,3c.13.68-.73.77-.73.77Zm2.34-1.61-.38,0a.62.62,0,0,1-.45-.16l-1.1-1.76c-.18-.47.12-.5.12-.5l.59-.07c.29-.12.61.43.61.43l.9,1.43c.19.24-.29.59-.29.59Zm2.6-.29-.38.05a.66.66,0,0,1-.45-.17l-1.1-1.75c-.18-.48.12-.51.12-.51l.59-.07c.29-.12.61.43.61.43l.9,1.43c.19.24-.29.59-.29.59Zm2.65-.29-.39,0a.61.61,0,0,1-.45-.17l-1.1-1.75c-.18-.47.12-.51.12-.51l.59-.06c.29-.12.61.42.61.42l.9,1.44c.2.23-.28.59-.28.59Zm-50.81,17.52a6.29,6.29,0,0,0,5.27,2.5,8.12,8.12,0,0,0,.85,0h.11a5,5,0,0,0,3.1-1.06c-3.52-.48-7-1-9.33-1.4Zm.73-28.4,2.39,0c1.64.06,1.87,2,1.87,2a12.14,12.14,0,0,0,3,.08v-.58A4.35,4.35,0,0,0,767,323l-3.92-3.53a5.44,5.44,0,0,0-3.68-1.32l-4.56,0a3.19,3.19,0,0,0-3.06,2.64l-1.37,9.58,15.8.41c2.26-1.27,1.13-1.47.12-1.47a5.27,5.27,0,0,0-.74,0l-.23,0a8.12,8.12,0,0,1-2.12-.65,9.32,9.32,0,0,0-1.62-.59,1.76,1.76,0,0,0-.46-.06,4.28,4.28,0,0,0-1,.14,2.67,2.67,0,0,1-.9.1.57.57,0,0,1-.48-.43v-1a2.08,2.08,0,0,1,2.19-1.93Zm-36.69,2.4v0l.13,1h1.31s14.83-.59,16-1.06,4.25-9.3,1.95-8.12c-2.22.76-13.41,1.38-16.82,1.56l0-.17a13.89,13.89,0,0,1,1.6-.67,14.37,14.37,0,0,1,1.74-.3l0-.59-7.66-.27-1.23,0-1.22,0v0l-1.68-.07c0,.11,0,.22,0,.34l6.73.71c-.33,2.09-.61,6.27-.7,7.68Zm51.78,22.93,4.71-.23c-1.41-1.44-3.84-1.29-4.71.23ZM737,346.86c-.36-1.39-2.85-1.43-3.35,0-.26.71,1.06,0,3.35,0Z" transform="translate(-456.5 -207.57)"/><path class="cls-2" d="M779.25,370.37c-4.54-.14-8-.54-8-.54h-.1c-2.7-.08-1.82-1-1.82-1,1.35-1.26,1-1.58.4-1.6a5.94,5.94,0,0,0-1.48.24,39.71,39.71,0,0,1-4.59.17,11.22,11.22,0,0,1-4.22-.65c-9.95-2.09-13.25-2.43-13.25-2.43a114.41,114.41,0,0,0-16.85-1.74c-2.55-.07-4.08,0-4.08,0,1.21,1.46-.42,1.45-.42,1.45a60.58,60.58,0,0,1-14.37-2.53l0-.91,21.91-1.1a4.83,4.83,0,0,0,2,1.3,7.57,7.57,0,0,0,2.43.42,17.17,17.17,0,0,0,2.31-.12l0,0h.05a4.67,4.67,0,0,0,2.92-2.06l13.58-.67,9.53,1.39,8.38.44a9.34,9.34,0,0,0,1.63,3.06,8.9,8.9,0,0,0,4.17,2.69l.2.08a12.14,12.14,0,0,0,4,.73,14.88,14.88,0,0,0,2.45-.12,7.06,7.06,0,0,0,5.79-4.41c.16-.35.29-.7.4-1l6.67.35,35.27,1c5.75.69-1.26,2.89-1.26,2.89L815.74,370a13.33,13.33,0,0,1-3.52.4,6.11,6.11,0,0,1-2.54-.49,8.19,8.19,0,0,0-2.3-.4,7.57,7.57,0,0,0-2.72.38,10.59,10.59,0,0,1-3.46.61,2.84,2.84,0,0,1-1.25-.25,40.35,40.35,0,0,0-5.26-.49,30.28,30.28,0,0,0-5.37.25,73.07,73.07,0,0,1-10.07.33Z" transform="translate(-456.5 -207.57)"/><path class="cls-3" d="M732.78,400.22l13.71.14-10.4,52.12,24.69.24-2.41,12-38.4-.37,12.81-64.12Zm60.37,54.43c11.06.11,18.73-15.45,18.86-27.55.07-8-2.71-15.75-12.82-15.85-11.53-.11-19.21,15.25-19.31,27.45-.09,9.05,3.93,15.86,13.17,15.95Zm-2,11.42c-16.69-.16-25.91-12.07-25.76-27,.1-11.53,4.5-22.83,11.91-30.1A33.65,33.65,0,0,1,801,399.83c17,.16,25.82,11.68,25.67,27-.11,11.62-4.31,23-11.63,30.1-6,5.85-14.19,9.2-23.82,9.11Zm91.41-3.13a68.56,68.56,0,0,1-20.81,3.42c-8.76-.08-16.08-2.44-21.27-7.25-5.11-4.53-8-11.71-7.91-19.9.11-12,5.07-22.35,13.33-29.23,7.29-5.93,17.34-9.17,28.49-9.06,8.28.07,14.47,1.75,16.94,3l-4.22,11.58a34.36,34.36,0,0,0-13.6-2.8,26.23,26.23,0,0,0-16.34,5c-5.66,4.33-9.45,11.92-9.54,20.69-.11,10.77,6.23,16.26,16.33,16.36a18.26,18.26,0,0,0,7.06-1.08l2.71-13.51-10-.09,2.3-10.94,23.36.22-6.81,33.58Z" transform="translate(-456.5 -207.57)"/><path class="cls-2" d="M461.18,447.16a30,30,0,0,0,15.12,4.24c5.24.05,10.12-2.38,10.17-7.34,0-3.71-2.71-6-8.59-9.23-6.73-3.68-13.16-8.89-13.08-17.18.13-13,11.45-20.77,25.45-20.63,7.72.07,12.28,1.83,15,3.29l-4.4,11.39A25.36,25.36,0,0,0,489,408.82c-6.39-.06-9.75,3.06-9.79,6.58,0,3.81,3.85,6.14,9.25,9.24,7.78,4.17,12.59,9.46,12.52,17.18-.14,14.29-12,21.52-26.23,21.38-8.86-.18-15.32-2.53-18.25-4.75l4.68-11.29Z" transform="translate(-456.5 -207.57)"/><polygon class="cls-2" points="72.32 202.88 55.35 202.71 57.85 190.73 105.6 191.19 103.19 203.17 86.04 203.01 75.63 255.13 61.91 255 72.32 202.88 72.32 202.88"/><path class="cls-2" d="M586.43,436.06l-1.11-13.83c-.25-3.52-.49-8.68-.73-12.58h-.29c-1.66,3.89-3.52,8.83-5.27,12.53l-6.42,13.76,13.82.13Zm-18,10.31L560.73,463l-14.68-.14,32-63.93,17.63.17,6.81,64.3-14.39-.14-1.17-16.69-18.49-.18Z" transform="translate(-456.5 -207.57)"/><path class="cls-2" d="M630.25,428l5.62.05c7.43.08,12.91-4.35,13-10.64,0-5.15-4.22-7.47-9.75-7.53a22.37,22.37,0,0,0-5.34.43L630.25,428Zm-8.13-27.43a79.31,79.31,0,0,1,17.17-1.46c6.1.06,12.38,1,16.83,3.88a13.78,13.78,0,0,1,7,12.55c-.09,9.53-6.44,15.38-14.75,18v.29c3.8,1.75,5.48,6,6,11.78.79,7.25,1.19,15.64,2.3,18.32l-14.1-.14c-.56-1.72-1.17-7.25-1.67-15.17s-3.23-10.23-8.66-10.28l-4.2,0-5,25.31-13.54-.13,12.61-62.88Z" transform="translate(-456.5 -207.57)"/><polygon class="cls-2" points="229.28 204.38 212.31 204.22 214.81 192.23 262.55 192.69 260.16 204.68 242.99 204.51 232.59 256.64 218.86 256.51 229.28 204.38 229.28 204.38"/><path class="cls-2" d="M515.78,488.17c.45-2.39.74-3.9.87-4.68,0-.27.09-.52.12-.73l-2.3,0a10.8,10.8,0,0,0-2.91.24c-.82.24-1.63-.4-1.44-1.1a2.24,2.24,0,0,1,2.38-1.31,10.41,10.41,0,0,0,1.18,0l10,.1c.33,0,.63,0,.91,0s.66,0,.94,0c.9,0,1.68.62,1.53,1.37s-1.22,1-2.1.86a7.1,7.1,0,0,0-1.21-.07l-3.18,0c-.35,1.33-.92,4-1.17,5.23,0,.09-.06.24-.09.36h0c-.47,2.57-1,5.14-1.46,7.71-.41,2.14-.61,3.47-.71,4.35a1.92,1.92,0,0,1-2.07,1.46h-.43c-.9,0-1.78-.62-1.5-1.41h0c.38-1.15.82-3.08,1.2-4.89l1.43-7.44Z" transform="translate(-456.5 -207.57)"/><path class="cls-2" d="M543.09,491.22h.15c.3,0,.73,0,1.12,0a8.23,8.23,0,0,0,3.52-.57,5,5,0,0,0,2.86-4.51c0-2.52-1.64-3.26-3.67-3.28a21.26,21.26,0,0,0-2.54.19h.27c-.34,1.27-.47,1.87-.95,4.23l-.76,3.9Zm5.4,1.78a14,14,0,0,0,4,8.12.73.73,0,0,1-.62,1.2h-.33c-.12,0-.27,0-.42,0a3.63,3.63,0,0,1-3-1.27,28.1,28.1,0,0,1-1.67-3,17.49,17.49,0,0,1-1.44-4.61l-2.3,0c-.35,2.05-.83,4.59-1.18,6.65l0,.27a.64.64,0,0,1-.07.24h0a2,2,0,0,1-2,1.65l-.18,0H539l0,0c-1,0-1.74-.77-1.49-1.5h0c.37-1.14.69-2.59,1.16-4.8.67-3.41,1.43-7.16,2.07-10.58a22.24,22.24,0,0,0,.42-2.72,1.79,1.79,0,0,1,1.83-1.62l1.91,0c.85,0,1.79,0,2.24,0s.79,0,1.09,0a9.26,9.26,0,0,1,4.5.89,4.74,4.74,0,0,1,2.14,4.08,7,7,0,0,1-2.25,4.89,9,9,0,0,1-4.26,2.17Z" transform="translate(-456.5 -207.57)"/><path class="cls-2" d="M572.82,493.93h-.28c2.24.09,3.06.09,3.76.1.91,0,1.39,0,2.48,0h-.27c-.16-2-.36-4.09-.52-6.12-.25-2.52-.25-2.67-.3-3-.31.57-.68,1.17-1.08,1.9s-.86,1.56-1,1.86l-2.77,5.34Zm9.77,3.63c.06.58.11,1.06.17,1.49.11,1,.17,1.51.25,1.94a1.5,1.5,0,0,1-1.68,1.56l-.18,0h-.33a1.62,1.62,0,0,1-1.83-1.38c0-.24,0-.54-.06-.88s0-.78-.08-1.27c-.05-.88-.1-1.91-.15-2.76l-7-.06c-.47.9-1,2-1.42,2.86s-.69,1.45-.87,1.9a2.46,2.46,0,0,1-2.38,1.49,1.23,1.23,0,0,0-.33,0c-.76,0-1.39-.68-1.08-1.28.9-1.51,2-3.41,2.9-5.15l.74-1.36c1.54-2.8,4.65-8.74,6.2-11.84a3.12,3.12,0,0,1,2.83-1.36,4.64,4.64,0,0,0,.66,0c1.09,0,2.12.6,2.2,1.53s.13,2,.21,3.07c0,.24.06.57.08.84l1.11,10.7Z" transform="translate(-456.5 -207.57)"/><path class="cls-2" d="M610.66,493.9c.71,1.7,1.15,2.85,1.45,3.58,0-.09,0-.21.06-.36s.1-.45.13-.69c.25-1.4.48-2.79.7-4.15l1.18-6.16c.26-1.3.39-2.21.45-2.81a1.92,1.92,0,0,1,2-1.62h.15c.88,0,1.57.78,1.29,1.5a48.09,48.09,0,0,0-1.57,5.92c-.48,2.23-1,4.56-1.43,6.8-.07.39-.16.78-.22,1.12-.36,1.81-.55,2.87-.68,4.05l0,.09a1.72,1.72,0,0,0,0,.36,1.68,1.68,0,0,1-1.8,1.38,2.43,2.43,0,0,1-2.14-1.24c-.27-.78-.74-1.94-1.87-4.59-.94-2.19-1.92-4.47-2.87-6.65a39,39,0,0,1-2-5c-.42,2.45-.64,3.78-1.22,7.23-.13.81-.29,1.75-.48,2.87-.51,2.9-.74,4.59-.81,5.65a1.85,1.85,0,0,1-2.08,1.5h-.3c-.91,0-1.6-.74-1.38-1.44A119.23,119.23,0,0,0,600,489a35.88,35.88,0,0,0,.75-5.75,1.67,1.67,0,0,1,1.74-1.64h1.3a2.47,2.47,0,0,1,2.44,1.72h0c.23.7.53,1.4,1.06,2.61l3.41,8Z" transform="translate(-456.5 -207.57)"/><path class="cls-2" d="M635.34,492.62c-1.54-1-3.19-2.12-3.17-4.39,0-3,2.94-6.82,9.12-6.76a14.3,14.3,0,0,1,2.87.33,1.58,1.58,0,0,1,1.22,1.95c-.19.73-1.25.9-2,.56a5.86,5.86,0,0,0-2.84-.69c-3.54,0-4.66,2.58-4.67,3.92,0,1.87,1.36,2.67,2.48,3.32l1.78,1.05c1.83,1.08,3.55,2.12,3.53,4.45,0,2.85-2.69,5-3.9,5.78a12.52,12.52,0,0,1-6.32,1.48,11.44,11.44,0,0,1-2.72-.36,1.56,1.56,0,0,1-1.1-2c.28-.81,1.4-1,2.34-.49l.21.13h-.06l.15,0a7.72,7.72,0,0,0,2.45.41c2.84,0,5.16-1.58,5.18-4.22,0-1.63-1-2.34-2.81-3.41l-1.71-1.05Z" transform="translate(-456.5 -207.57)"/><path class="cls-2" d="M663.24,492.8l.85,0a10.08,10.08,0,0,0,3.85-.6c2.25-1.12,2.76-4,2.78-5.21,0-3-2.58-3.08-4-3.09-.24,0-.49,0-.88,0s-.3,0-.73,0c-.34,1.45-.53,2.33-.66,2.9-.09.4-.16.73-.28,1.21l-.93,4.72ZM660.62,488c.42-2.15.61-3.45.71-4.27a1.75,1.75,0,0,1,1.83-1.64h.52c.76,0,1.72,0,2.63,0h.28c.69,0,1.51-.05,1.87,0,3.39,0,6.21,1.11,6.17,4.84,0,1.45-.67,8.26-10.08,8.17a8.64,8.64,0,0,1-1.66-.08l-1,5.63c0,.11,0,.24-.07.36,0,.27-.06.51-.1.72a2,2,0,0,1-2.1,1.65h-.52a1.3,1.3,0,0,1-1.37-1.55c.43-1.36.84-3.21,1.19-4.72l1.75-9Z" transform="translate(-456.5 -207.57)"/><path class="cls-2" d="M702.31,485.12a4.78,4.78,0,0,0-3-1c-6-.06-8.37,7.28-8.41,12a9.24,9.24,0,0,0,.75,3.94,4.45,4.45,0,0,0,3.78,2.19c6.1.05,8.26-7.95,8.31-12.37,0-1.42-.15-3.57-1.42-4.7Zm5.35,4.53c0,5.09-3.47,14.56-12.47,14.47A7.58,7.58,0,0,1,686.9,496c0-2.3.84-8.29,5.91-11.87a11.36,11.36,0,0,1,6.8-2c5.32.05,8.09,2.83,8,7.59Z" transform="translate(-456.5 -207.57)"/><path class="cls-2" d="M726.08,493h.15c.3,0,.73,0,1.12,0a8.38,8.38,0,0,0,3.52-.57,5,5,0,0,0,2.86-4.52c0-2.51-1.64-3.26-3.66-3.27a20.54,20.54,0,0,0-2.54.18h.26c-.34,1.27-.47,1.87-.94,4.23l-.77,3.89Zm5.4,1.78a14,14,0,0,0,3.95,8.12.74.74,0,0,1-.62,1.21h-.33c-.12,0-.27,0-.43,0a3.61,3.61,0,0,1-3-1.27,26.15,26.15,0,0,1-1.67-3,17.41,17.41,0,0,1-1.43-4.62l-2.31,0c-.35,2.06-.83,4.59-1.18,6.65l0,.27a.72.72,0,0,1-.06.24h0a2,2,0,0,1-2,1.65l-.18,0H722l0,0c-1,0-1.76-.77-1.51-1.49h0c.36-1.15.69-2.6,1.16-4.8.67-3.42,1.44-7.17,2.07-10.58a22.53,22.53,0,0,0,.42-2.72,1.81,1.81,0,0,1,1.83-1.62l1.91,0c.85,0,1.79,0,2.24,0s.79,0,1.09,0a9.08,9.08,0,0,1,4.51.89,4.78,4.78,0,0,1,2.14,4.08,7.06,7.06,0,0,1-2.26,4.88,8.88,8.88,0,0,1-4.25,2.17Z" transform="translate(-456.5 -207.57)"/><path class="cls-2" d="M757.64,490.49c.45-2.39.74-3.9.87-4.68,0-.28.09-.52.13-.73l-2.3,0a10.73,10.73,0,0,0-2.91.24c-.82.24-1.63-.41-1.45-1.1a2.22,2.22,0,0,1,2.37-1.31c.33,0,.73,0,1.19,0l10,.1c.33,0,.64,0,.91,0s.66,0,.94,0c.9,0,1.68.62,1.53,1.37s-1.22,1-2.11.86a7,7,0,0,0-1.21-.07l-3.17,0c-.34,1.33-.92,4-1.16,5.22,0,.1-.07.25-.11.37h0c-.48,2.57-1,5.13-1.46,7.71-.43,2.14-.61,3.47-.72,4.35a1.93,1.93,0,0,1-2.07,1.46h-.43c-.91,0-1.78-.63-1.49-1.41h0c.37-1.15.81-3.08,1.19-4.9l1.43-7.43Z" transform="translate(-456.5 -207.57)"/><path class="cls-2" d="M783.58,500a9,9,0,0,0-.2,1.43c0,1.09.67,1.09,2.76,1.11a25.65,25.65,0,0,0,4.05-.23l.25,0,.45-.11c.73-.21,1.39.31,1.24.91a2.42,2.42,0,0,1-2.41,1.59l-2,0c-.82,0-1.66-.05-2.57-.06-1.37,0-3.24,0-4.58,0a1.25,1.25,0,0,1-1.26-1.62,41.86,41.86,0,0,0,1.15-5l.89-4.66a75.78,75.78,0,0,0,1.3-8.28,2.06,2.06,0,0,1,2-1.71c1.24.05,3,.06,4.18.07,1.75,0,3.39,0,4.72,0,.7,0,1.39.62,1.3,1.19a1.7,1.7,0,0,1-1.9,1,22.3,22.3,0,0,0-2.71-.18c-1.18,0-2.46,0-3.27,0-.28,0-.46,0-.61,0h.15c-.44,2.24-.92,4.53-1.37,6.77h1.13c.23,0,.48,0,.69,0,.48,0,1,0,1.36-.05.88,0,1.79.41,1.62,1.1-.19.88-1.34,1.29-2.33,1.19-.43,0-1-.07-1.43-.07-1,0-1.76,0-1.76,0h.27L783.58,500Z" transform="translate(-456.5 -207.57)"/><path class="cls-2" d="M812,494.31c-1.54-1-3.2-2.12-3.18-4.39,0-3,2.94-6.81,9.12-6.75a13.56,13.56,0,0,1,2.88.33,1.57,1.57,0,0,1,1.22,1.95c-.19.72-1.25.89-2,.55a5.78,5.78,0,0,0-2.83-.69c-3.55,0-4.66,2.59-4.67,3.92,0,1.88,1.36,2.68,2.48,3.32l1.78,1.05c1.83,1.08,3.55,2.12,3.52,4.46,0,2.84-2.68,5-3.89,5.77a12.55,12.55,0,0,1-6.32,1.49,11.6,11.6,0,0,1-2.73-.36,1.57,1.57,0,0,1-1.09-2c.28-.82,1.4-1,2.33-.5l.21.13h0l.15,0a8.08,8.08,0,0,0,2.44.42c2.84,0,5.16-1.59,5.19-4.22,0-1.64-1-2.34-2.82-3.42l-1.7-1.05Z" transform="translate(-456.5 -207.57)"/><path class="cls-2" d="M714.19,286.84a3.35,3.35,0,0,1-.72-.1,2.49,2.49,0,0,1-1.61-2L709.25,273s-.12-.87-.4-1a.94.94,0,0,0-.48-.08,7.65,7.65,0,0,0-1,.07c-.89.1-17.89,2-23.18,2-5.09-.13-16-2.31-16.59-2.43.37.11,7.59,2.25,7.51,3s-3.62,4.43-4.48,4.42-3.29-5.58-4.21-6.24a2.43,2.43,0,0,0-1.4-.33c-.22,0-.44,0-.67,0l-.66,0a2.33,2.33,0,0,1-.78-.11c-.87-.32,1.78-1.09,1.32-1.69-.57-.15-3.45-1.43-6.46-2.86.54-.83,1.1-1.77,1.6-2.67a20.83,20.83,0,0,0,2.37.3.81.81,0,0,0,.39-.06c.23-.18-.6-1.07-1.75-2.14a8.42,8.42,0,0,0,.83-2.1c.06-.78-3.05-1.63-5.82-2.22a2.15,2.15,0,0,1-.43-.72c1.3,0,2.84,0,4.49,0,5.22,1.8,16.26,7.25,18.91,7.86a2.33,2.33,0,0,0,.43,0c3.62,0,20.26-4.52,25.71-6l1.15,7s.3,2.67,1.8,2.82a2.79,2.79,0,0,0,2.4-1.26l5.19-11.42h.14c4.35,0,23.8-3.3,24.83-3.48a51.15,51.15,0,0,1,9.49-.75c5.32,0,9.79.82,10.87,1.59a2.67,2.67,0,0,1,1,3.38c-1.13,3.15-23.57,8-24.75,8.23-.14,0-2.63.8-5,1.65s-4.72,4.63-4.84,4.83L715.64,286.4a2.28,2.28,0,0,1-1.45.44Zm-62.12-22c-1.25-.66-2-1.16-2-1.28s.14-.07.32-.06a9.1,9.1,0,0,1,1.05.1c.2.4.4.82.6,1.24Zm52.39-5.17-13.23,1.7-13.56-5.81c3.3-1.12,7.36-2.66,11.12-4.12l14.9,3.54.77,4.69Z" transform="translate(-456.5 -207.57)"/><polygon class="cls-4" points="70.83 166.13 70.72 166.13 70.81 166.27 70.83 166.13 70.83 166.13"/><path class="cls-5" d="M820.64,427.71h0Zm0-.07h0Zm0-.06h0Zm0-.06v0Zm0-.07v0Zm0-.06v0Zm0-.07v0Zm0-.06v0Zm0-.07v0Zm0-.06v0Zm0-.07v0Zm0-.07v0Z" transform="translate(-456.5 -207.57)"/><path class="cls-2" d="M555.11,376.25c-44,14.31-65.66,2.81-48.78-26.61s83.84-75.9,125.46-82.62l3.09,5.15c-35.65,11.65-74.63,29-117.11,73.2-12.12,12.62-11,22.44-4,26.78-.73-10.29,4.91-18.6,13.41-26.19,50.36-45,80.95-57,111.17-68l3.4,5.67c-42.3,15.74-82.9,36.15-113.33,71-19,21.75-6.67,29.64,26.67,21.59Z" transform="translate(-456.5 -207.57)"/><path class="cls-2" d="M527.68,373.53c47.45-39.26,109.4-59.17,180.59-54.4l2.51,10.25c-59.49-9.16-120.54,4.48-182.93,44.07l-.17.08Zm186.51-30.09,3.41,14c-67.15-21.72-129.57-12-189.29,15.77,50.46-30,112-41,185.88-29.8Z" transform="translate(-456.5 -207.57)"/><path class="cls-3" d="M735,235.48s-2.85,1.57-5.5,3.23-5.94,8.38-5.94,8.38L709,271.51a2.81,2.81,0,0,1-2.53,1c-1.49-.31-1.49-3-1.49-3l-1-19.12s0-1.42-.28-1.68-1.71.21-1.71.21-22.62,6.58-28.86,7.22-21.23-1.42-21.23-1.42,9.86,2.69,9.59,4.07-5.67,8.73-6.8,8.82-3.47-9.47-4.62-10.51-3.61.34-4.79-.1,2.67-2.33,2.12-3.33c-1.7-.39-19.5-9.63-19-10.62s16.07,2.21,17,1.25-8.27-10.8-8.27-10.8-1.26-1.79-.16-2.71c1.42-1.35,5.74.53,5.74.53,6.91,2.53,21.16,11,24.57,11.7s35.39-14.77,35.39-14.77l-18.24,5L648,214s-4-2.61-2.59-4.93,5.61-1.39,8.58-.6L704,221.94a30.17,30.17,0,0,0,9.29,1.39c4.44-.22,27.07-7.81,27.07-7.81a35.84,35.84,0,0,1,15.07-1.8l.35.05c2.26.28,3.87.83,4.39,1.45,1.64,1.74.43,5,.43,5-1.53,4.86-25.69,15.22-25.69,15.22Z" transform="translate(-456.5 -207.57)"/></svg>